<svg version="1.1"  xmlns="http://www.w3.org/2000/svg" xmlns:xlink="http://www.w3.org/1999/xlink" x="0px" y="0px" width="30" height="30"
  viewBox="0 0 132.2 101.3" style="enable-background:new 0 0 132.2 101.3;" xml:space="preserve">
<g>
 <rect x="98.4" y="46.1" style="fill:#9400d3;" width="8.5" height="8.5"/>
 <path style="fill:#484845;" d="M117.9,42.4C117.7,32,111,34,111,34s-9.7,0-23,0v15.7H34.2V34.1c-11.2,0-19.3,0-20.2,0
  c-3.2,0-4.3,5.4-4.3,5.4s0,29.9,0,36c0,6.1,7.1,7.4,7.1,7.4h10.7v11H94V82.6c0,0,11.6,0,17.6,0c6.1,0,6.4-7.8,6.4-7.8
  S118.2,52.8,117.9,42.4z M87.8,87.4H34.3v-4.5h53.5V87.4z M110.3,74.7H17.3V40.8h10.8v15.6H94V40.8h16.4V74.7z"/>
 <path style="fill:#9400d3;" d="M40.2,5.3c0,0-12.1,15-12.3,18.1l0.2,33h66.3V5.3H40.2z M38.9,17.3l2.1-2.4l0.5,2.5l0.5,2.5
  l-2.6-0.1l-2.6-0.2L38.9,17.3z M88,49.8H34.2l0.2-23.8h12.5V11.3h41V49.8z"/>
</g>
</svg>